<svg id="Arc" xmlns="http://www.w3.org/2000/svg" width="1269.89" height="242" viewBox="0 0 1269.89 242">
  <path id="Soustraction_6" data-name="Soustraction 6" d="M-412.055,383h-1269.89c21.506-17.839,44.014-34.967,66.9-50.909,22.985-16.012,46.918-31.226,71.136-45.219,24.358-14.074,49.6-27.259,75.035-39.19,25.62-12.019,52.065-23.062,78.6-32.823,26.772-9.848,54.3-18.636,81.824-26.118,27.813-7.561,56.314-13.979,84.712-19.075,28.736-5.156,58.1-9.09,87.263-11.693,29.548-2.636,59.653-3.973,89.477-3.973s59.929,1.337,89.477,3.973c29.167,2.6,58.527,6.536,87.263,11.693,28.4,5.1,56.9,11.514,84.712,19.075,27.523,7.483,55.052,16.27,81.824,26.118,26.533,9.76,52.978,20.8,78.6,32.823,25.433,11.931,50.678,25.117,75.036,39.19,24.218,13.993,48.151,29.207,71.136,45.219,22.892,15.948,45.4,33.075,66.9,50.906Z" transform="translate(1681.945 -154)" fill="#454b44"/>
  <path id="Soustraction_5" data-name="Soustraction 5" d="M-418.131,383H-1675.869c21.392-17.463,43.765-34.229,66.5-49.834,22.83-15.672,46.586-30.559,70.609-44.249,24.163-13.77,49.193-26.668,74.394-38.337,25.39-11.756,51.584-22.555,77.855-32.1,26.508-9.629,53.756-18.22,80.99-25.534,27.518-7.39,55.712-13.663,83.8-18.643,28.416-5.039,57.446-8.883,86.283-11.425,29.208-2.575,58.964-3.881,88.442-3.881s59.234,1.306,88.442,3.881c28.837,2.542,57.867,6.386,86.283,11.425,28.088,4.98,56.282,11.252,83.8,18.643,27.233,7.314,54.482,15.9,80.99,25.534,26.271,9.543,52.465,20.343,77.855,32.1,25.2,11.669,50.231,24.567,74.394,38.337,24.023,13.69,47.779,28.578,70.608,44.249,22.736,15.608,45.108,32.374,66.494,49.832l0,0h0Z" transform="translate(1681.945 -141)" fill="#fff"/>
</svg>
